<svg version="1.1" preserveAspectRatio="none" xmlns="http://www.w3.org/2000/svg" width="500" height="500" viewBox="0 0 500 500"><rect width="100%" height="100%" fill="#212D94" fill-opacity="1"/><svg viewBox="2.1546 106.8562 452.082 192.4" width="333" height="141.72030737786508" x="83.5px" y="179.1398px" xmlns="http://www.w3.org/2000/svg" xmlns:xlink="http://www.w3.org/1999/xlink" preserveAspectRatio="none"><defs></defs><style>.a60p5ZquTEfillColor {fill:#F1F1F1;fill-opacity:0;}.ahs7pIl34ofillColor {fill:#0A0A0A;fill-opacity:0.1;}.background {fill:#212D94;fill-opacity:1;}.companyName {fill:#F1F1F1;fill-opacity:1;}.icon3-str {stroke:#0A0A0A;stroke-opacity:1;}.shapeStroke-str {stroke:#0A0A0A;stroke-opacity:1;}.text-str {stroke:#F1F1F1;stroke-opacity:1;}</style><g opacity="1" transform="rotate(0 2.1546 106.8562)">
<svg width="226.041" height="192.4" x="2.1546" y="106.8562" version="1.1" preserveAspectRatio="none" viewBox="0 0 226.041 192.4">
  <defs><rect x="12.025" y="12.025" width="201.99099999999999" height="168.35" rx="0px" ry="0px" id="id-60p5ZquTE1693528559998"></rect></defs><use class="a60p5ZquTEfillColor text-str" style="stroke-width:24.05;" xlink:href="#id-60p5ZquTE1693528559998"></use>
</svg>
</g><g opacity="1" transform="rotate(0 228.1956 106.8562)">
<svg width="226.041" height="192.4" x="228.1956" y="106.8562" version="1.1" preserveAspectRatio="none" viewBox="0 0 226.041 192.4">
  <defs><rect x="12.025" y="12.025" width="201.99099999999999" height="168.35" rx="0px" ry="0px" id="id-hs7pIl34o1693528559999"></rect></defs><use class="ahs7pIl34ofillColor icon3-str" style="stroke-width:24.05;" xlink:href="#id-hs7pIl34o1693528559999"></use>
</svg>
</g><g opacity="1" transform="rotate(0 12.1546 116.8562)">
<svg width="432.082" height="172.4" x="12.1546" y="116.8562" version="1.1" preserveAspectRatio="none" viewBox="0 0 432.082 172.4">
  <defs><rect x="0" y="0" width="432.082" height="172.4" rx="0px" ry="0px" id="id-BO9lbzKc31693528560000"></rect></defs><use class="background shapeStroke-str" style="stroke-width:0;" xlink:href="#id-BO9lbzKc31693528560000"></use>
</svg>
</g><g opacity="1" transform="rotate(0 146.2914 224.8562)">
<svg width="163.8085" height="14.4" x="146.2914" y="224.8562" version="1.1" preserveAspectRatio="none" viewBox="0.88 -31.48 450 39.56">
  <g transform="matrix(1 0 0 1 0 0)" class="companyName"><path id="id-6izo4zJp16" d="M39.44-28L45.64-28L36.48 0L29.52 0L23.36-18.96L17 0L10.08 0L0.88-28L7.60-28L13.92-8.32L20.52-28L26.52-28L32.92-8.16L39.44-28Z M76.28-10.68Q76.28-10.56 76.16-9L76.16-9L59.88-9Q60.32-7 61.96-5.84Q63.60-4.68 66.04-4.68L66.04-4.68Q67.72-4.68 69.02-5.18Q70.32-5.68 71.44-6.76L71.44-6.76L74.76-3.16Q71.72 0.32 65.88 0.32L65.88 0.32Q62.24 0.32 59.44-1.10Q56.64-2.52 55.12-5.04Q53.60-7.56 53.60-10.76L53.60-10.76Q53.60-13.92 55.10-16.46Q56.60-19 59.22-20.42Q61.84-21.84 65.08-21.84L65.08-21.84Q68.24-21.84 70.80-20.48Q73.36-19.12 74.82-16.58Q76.28-14.04 76.28-10.68L76.28-10.68ZM65.12-17.12Q63-17.12 61.56-15.92Q60.12-14.72 59.80-12.64L59.80-12.64L70.40-12.64Q70.08-14.68 68.64-15.90Q67.20-17.12 65.12-17.12L65.12-17.12Z M123.44-29.68L129.68-29.68L129.68 0L123.72 0L123.72-2.48Q121.40 0.32 117 0.32L117 0.32Q113.96 0.32 111.50-1.04Q109.04-2.40 107.64-4.92Q106.24-7.44 106.24-10.76L106.24-10.76Q106.24-14.08 107.64-16.60Q109.04-19.12 111.50-20.48Q113.96-21.84 117-21.84L117-21.84Q121.12-21.84 123.44-19.24L123.44-19.24L123.44-29.68ZM118.08-4.80Q120.44-4.80 122-6.42Q123.56-8.04 123.56-10.76L123.56-10.76Q123.56-13.48 122-15.10Q120.44-16.72 118.08-16.72L118.08-16.72Q115.68-16.72 114.12-15.10Q112.56-13.48 112.56-10.76L112.56-10.76Q112.56-8.04 114.12-6.42Q115.68-4.80 118.08-4.80L118.08-4.80Z M153.68 0.32Q150.28 0.32 147.58-1.10Q144.88-2.52 143.36-5.04Q141.84-7.56 141.84-10.76L141.84-10.76Q141.84-13.96 143.36-16.48Q144.88-19 147.58-20.42Q150.28-21.84 153.68-21.84L153.68-21.84Q157.08-21.84 159.76-20.42Q162.44-19 163.96-16.48Q165.48-13.96 165.48-10.76L165.48-10.76Q165.48-7.56 163.96-5.04Q162.44-2.52 159.76-1.10Q157.08 0.32 153.68 0.32L153.68 0.32ZM153.68-4.80Q156.08-4.80 157.62-6.42Q159.16-8.04 159.16-10.76L159.16-10.76Q159.16-13.48 157.62-15.10Q156.08-16.72 153.68-16.72L153.68-16.72Q151.28-16.72 149.72-15.10Q148.16-13.48 148.16-10.76L148.16-10.76Q148.16-8.04 149.72-6.42Q151.28-4.80 153.68-4.80L153.68-4.80Z M196.96 0L196.96-21.52L203.20-21.52L203.20 0L196.96 0ZM200.08-24.52Q198.36-24.52 197.28-25.52Q196.20-26.52 196.20-28L196.20-28Q196.20-29.48 197.28-30.48Q198.36-31.48 200.08-31.48L200.08-31.48Q201.80-31.48 202.88-30.52Q203.96-29.56 203.96-28.12L203.96-28.12Q203.96-26.56 202.88-25.54Q201.80-24.52 200.08-24.52L200.08-24.52Z M229.20-5.44L230.88-1.04Q229.96-0.36 228.62-0.02Q227.28 0.32 225.80 0.32L225.80 0.32Q221.96 0.32 219.86-1.64Q217.76-3.60 217.76-7.40L217.76-7.40L217.76-16.24L214.44-16.24L214.44-21.04L217.76-21.04L217.76-26.28L224.00-26.28L224.00-21.04L229.36-21.04L229.36-16.24L224.00-16.24L224.00-7.48Q224.00-6.12 224.70-5.38Q225.40-4.64 226.68-4.64L226.68-4.64Q228.16-4.64 229.20-5.44L229.20-5.44Z M268.56-21.96L268.56-21.04L274.08-21.04L274.08-16.24L268.72-16.24L268.72 0L262.48 0L262.48-16.24L259.16-16.24L259.16-21.04L262.48-21.04L262.48-22Q262.48-25.68 264.66-27.84Q266.84-30 270.80-30L270.80-30Q272.20-30 273.46-29.70Q274.72-29.40 275.56-28.84L275.56-28.84L273.92-24.32Q272.84-25.08 271.40-25.08L271.40-25.08Q268.56-25.08 268.56-21.96L268.56-21.96Z M295.16 0.32Q291.76 0.32 289.06-1.10Q286.36-2.52 284.84-5.04Q283.32-7.56 283.32-10.76L283.32-10.76Q283.32-13.96 284.84-16.48Q286.36-19 289.06-20.42Q291.76-21.84 295.16-21.84L295.16-21.84Q298.56-21.84 301.24-20.42Q303.92-19 305.44-16.48Q306.96-13.96 306.96-10.76L306.96-10.76Q306.96-7.56 305.44-5.04Q303.92-2.52 301.24-1.10Q298.56 0.32 295.16 0.32L295.16 0.32ZM295.16-4.80Q297.56-4.80 299.10-6.42Q300.64-8.04 300.64-10.76L300.64-10.76Q300.64-13.48 299.10-15.10Q297.56-16.72 295.16-16.72L295.16-16.72Q292.76-16.72 291.20-15.10Q289.64-13.48 289.64-10.76L289.64-10.76Q289.64-8.04 291.20-6.42Q292.76-4.80 295.16-4.80L295.16-4.80Z M325.08-18.68Q326.20-20.24 328.10-21.04Q330-21.84 332.48-21.84L332.48-21.84L332.48-16.08Q331.44-16.16 331.08-16.16L331.08-16.16Q328.40-16.16 326.88-14.66Q325.36-13.16 325.36-10.16L325.36-10.16L325.36 0L319.12 0L319.12-21.52L325.08-21.52L325.08-18.68Z M379.04-21.52L385.04-21.52L375.32 1.32Q373.84 5.04 371.66 6.56Q369.48 8.08 366.40 8.08L366.40 8.08Q364.72 8.08 363.08 7.56Q361.44 7.04 360.40 6.12L360.40 6.12L362.68 1.68Q363.40 2.32 364.34 2.68Q365.28 3.04 366.20 3.04L366.20 3.04Q367.48 3.04 368.28 2.42Q369.08 1.80 369.72 0.36L369.72 0.36L369.80 0.16L360.48-21.52L366.92-21.52L372.96-6.92L379.04-21.52Z M405.24 0.32Q401.84 0.32 399.14-1.10Q396.44-2.52 394.92-5.04Q393.40-7.56 393.40-10.76L393.40-10.76Q393.40-13.96 394.92-16.48Q396.44-19 399.14-20.42Q401.84-21.84 405.24-21.84L405.24-21.84Q408.64-21.84 411.32-20.42Q414-19 415.52-16.48Q417.04-13.96 417.04-10.76L417.04-10.76Q417.04-7.56 415.52-5.04Q414-2.52 411.32-1.10Q408.64 0.32 405.24 0.32L405.24 0.32ZM405.24-4.80Q407.64-4.80 409.18-6.42Q410.72-8.04 410.72-10.76L410.72-10.76Q410.72-13.48 409.18-15.10Q407.64-16.72 405.24-16.72L405.24-16.72Q402.84-16.72 401.28-15.10Q399.72-13.48 399.72-10.76L399.72-10.76Q399.72-8.04 401.28-6.42Q402.84-4.80 405.24-4.80L405.24-4.80Z M444.64-21.52L450.88-21.52L450.88 0L444.96 0L444.96-2.56Q443.72-1.16 442-0.42Q440.28 0.32 438.28 0.32L438.28 0.32Q434.04 0.32 431.56-2.12Q429.08-4.56 429.08-9.36L429.08-9.36L429.08-21.52L435.32-21.52L435.32-10.28Q435.32-5.08 439.68-5.08L439.68-5.08Q441.92-5.08 443.28-6.54Q444.64-8 444.64-10.88L444.64-10.88L444.64-21.52Z"/></g>
</svg>
</g><g opacity="1" transform="rotate(0 52.1546 166.8562)">
<svg width="352.082" height="40" x="52.1546" y="166.8562" version="1.1" preserveAspectRatio="none" viewBox="4 -31.2 280.96000000000004 31.919999999999998">
  <g transform="matrix(1 0 0 1 0 0)" class="companyName"><path id="id-D6z1nYkh13" d="M4 0L4-29.12L12.28-29.12Q17.76-29.12 21.34-26.96Q24.92-24.80 26.56-21.40Q28.20-18 28.20-14.16L28.20-14.16Q28.20-9.92 26.22-6.70Q24.24-3.48 20.92-1.74Q17.60 0 13.68 0L13.68 0L4 0ZM8.68-4.48L12.84-4.48Q15.96-4.48 18.34-5.64Q20.72-6.80 22.06-9.06Q23.40-11.32 23.40-14.48L23.40-14.48Q23.40-17.92 21.94-20.22Q20.48-22.52 18.22-23.60Q15.96-24.68 13.56-24.68L13.56-24.68L8.68-24.68L8.68-4.48Z M43.68-3.40Q45.56-3.40 47.48-4.72L47.48-4.72L49.52-1.40Q48.16-0.56 46.60-0.06Q45.04 0.44 43.60 0.44L43.60 0.44Q40.68 0.44 38.54-0.72Q36.40-1.88 35.26-3.92Q34.12-5.96 34.12-8.60L34.12-8.60Q34.12-11.08 35.40-13.16Q36.68-15.24 38.88-16.46Q41.08-17.68 43.68-17.68L43.68-17.68Q47.12-17.68 49.40-15.66Q51.68-13.64 52.44-9.96L52.44-9.96L39.40-5.56Q40.08-4.52 41.20-3.96Q42.32-3.40 43.68-3.40L43.68-3.40ZM43.32-14.16Q41.20-14.16 39.86-12.68Q38.52-11.20 38.52-8.84L38.52-8.84Q38.52-8.40 38.56-8.16L38.56-8.16L47.44-11.32Q46.92-12.56 45.92-13.36Q44.92-14.16 43.32-14.16L43.32-14.16Z M69.88-16.92L74.88-16.92L65.60 0.44L65.40 0.44L55.68-16.92L61-16.92L65.64-7.24L69.88-16.92Z M102.80 0L97.40 0L90.84-10.12L90.36-10.12L86.16-10.12L86.16 0L81.48 0L81.48-29.12L89.68-29.12Q94.56-29.12 97.50-26.64Q100.44-24.16 100.44-19.76L100.44-19.76Q100.44-17.08 99.30-14.78Q98.16-12.48 95.72-11.24L95.72-11.24L102.80 0ZM86.16-24.64L86.16-14.60L90.32-14.60Q93.12-14.60 94.38-16.14Q95.64-17.68 95.64-19.60L95.64-19.60Q95.64-20.72 95.16-21.86Q94.68-23 93.52-23.82Q92.36-24.64 90.48-24.64L90.48-24.64L86.16-24.64Z M116.88-3.40Q118.76-3.40 120.68-4.72L120.68-4.72L122.72-1.40Q121.36-0.56 119.80-0.06Q118.24 0.44 116.80 0.44L116.80 0.44Q113.88 0.44 111.74-0.72Q109.60-1.88 108.46-3.92Q107.32-5.96 107.32-8.60L107.32-8.60Q107.32-11.08 108.60-13.16Q109.88-15.24 112.08-16.46Q114.28-17.68 116.88-17.68L116.88-17.68Q120.32-17.68 122.60-15.66Q124.88-13.64 125.64-9.96L125.64-9.96L112.60-5.56Q113.28-4.52 114.40-3.96Q115.52-3.40 116.88-3.40L116.88-3.40ZM116.52-14.16Q114.40-14.16 113.06-12.68Q111.72-11.20 111.72-8.84L111.72-8.84Q111.72-8.40 111.76-8.16L111.76-8.16L120.64-11.32Q120.12-12.56 119.12-13.36Q118.12-14.16 116.52-14.16L116.52-14.16Z M143.08-16.92L148.08-16.92L138.80 0.44L138.60 0.44L128.88-16.92L134.20-16.92L138.84-7.24L143.08-16.92Z M151.88-8.64Q151.88-11.16 153.10-13.24Q154.32-15.32 156.48-16.50Q158.64-17.68 161.40-17.68L161.40-17.68Q164.16-17.68 166.30-16.50Q168.44-15.32 169.60-13.26Q170.76-11.20 170.76-8.64L170.76-8.64Q170.76-6.08 169.60-4.02Q168.44-1.96 166.30-0.76Q164.16 0.44 161.36 0.44L161.36 0.44Q158.64 0.44 156.48-0.66Q154.32-1.76 153.10-3.82Q151.88-5.88 151.88-8.64L151.88-8.64ZM156.40-8.60Q156.40-6.32 157.80-4.78Q159.20-3.24 161.28-3.24L161.28-3.24Q163.44-3.24 164.82-4.76Q166.20-6.28 166.20-8.60L166.20-8.60Q166.20-10.92 164.82-12.46Q163.44-14 161.28-14L161.28-14Q159.20-14 157.80-12.42Q156.40-10.84 156.40-8.60L156.40-8.60Z M177.48-31.20L181.96-31.20L181.96 0L177.48 0L177.48-31.20Z M201.92-16.92L206.40-16.92L206.40 0L202.36 0L202.08-3.04Q201.20-1.32 199.48-0.30Q197.76 0.72 195.56 0.72L195.56 0.72Q193.24 0.72 191.70-0.70Q190.16-2.12 190.12-4.36L190.12-4.36L190.12-16.92L194.60-16.92L194.60-5.96Q194.72-3.16 197.36-3.12L197.36-3.12Q199.32-3.12 200.62-4.92Q201.92-6.72 201.92-9.44L201.92-9.44L201.92-16.92Z M216.24-24.36L220.72-24.36L220.72-16.92L225.12-16.92L225.12-13.40L220.72-13.40L220.72 0L216.24 0L216.24-13.40L213.32-13.40L213.32-16.92L216.24-16.92L216.24-24.36Z M231.52-16.92L236-16.92L236 0L231.52 0L231.52-16.92ZM231.32-22.96Q231.32-23.96 232.12-24.66Q232.92-25.36 233.92-25.36L233.92-25.36Q234.88-25.36 235.66-24.66Q236.44-23.96 236.44-22.96L236.44-22.96Q236.44-21.96 235.66-21.28Q234.88-20.60 233.92-20.60L233.92-20.60Q232.92-20.60 232.12-21.28Q231.32-21.96 231.32-22.96L231.32-22.96Z M242.76-8.64Q242.76-11.16 243.98-13.24Q245.20-15.32 247.36-16.50Q249.52-17.68 252.28-17.68L252.28-17.68Q255.04-17.68 257.18-16.50Q259.32-15.32 260.48-13.26Q261.64-11.20 261.64-8.64L261.64-8.64Q261.64-6.08 260.48-4.02Q259.32-1.96 257.18-0.76Q255.04 0.44 252.24 0.44L252.24 0.44Q249.52 0.44 247.36-0.66Q245.20-1.76 243.98-3.82Q242.76-5.88 242.76-8.64L242.76-8.64ZM247.28-8.60Q247.28-6.32 248.68-4.78Q250.08-3.24 252.16-3.24L252.16-3.24Q254.32-3.24 255.70-4.76Q257.08-6.28 257.08-8.60L257.08-8.60Q257.08-10.92 255.70-12.46Q254.32-14 252.16-14L252.16-14Q250.08-14 248.68-12.42Q247.28-10.84 247.28-8.60L247.28-8.60Z M279.40-17.64Q281.76-17.64 283.34-16.22Q284.92-14.80 284.96-12.56L284.96-12.56L284.96 0L280.48 0L280.48-10.96Q280.40-12.28 279.70-13.04Q279-13.80 277.60-13.84L277.60-13.84Q275.52-13.84 274.18-12.06Q272.84-10.28 272.84-7.52L272.84-7.52L272.84 0L268.36 0L268.36-16.92L272.40-16.92L272.72-13.92Q273.64-15.68 275.38-16.66Q277.12-17.64 279.40-17.64L279.40-17.64Z"/></g>
</svg>
</g></svg></svg>